# xmcd
#
# Track frame offsets: 
#        150
#        13947
#        30811
#        60189
#        80972
#        95942
#        125819
#        149893
#        173877
#        190147
#        203577
#        224409
#        241395
#        265106
#
# Disc length: 3873 seconds
#
# Revision: 1
# Processed by: cddbd v1.5.2PL0 Copyright (c) Steve Scherf et al.
# Submitted via: ExactAudioCopy v0.99pb3
#
DISCID=d10f1f0e
DTITLE=Otis Spann - The Complete Blue Horizon Sessions - CD2
DYEAR=2006
DGENRE=Blues
TTITLE0=No More Doggin'  (take 1)
TTITLE1=No More Doggin' (take 2 false start plus take 3)
TTITLE2=I Need Some Air (take 1 false start plus take 2)
TTITLE3=Walkin' (take 1 and 2 false starts plus take 3)
TTITLE4=Walkin' (take 4)
TTITLE5=Blues For Hippies (take 1 complete master remix)
TTITLE6=Temperature Is Rising (98.8F) (take 1 single master remix)
TTITLE7=Someday Baby (take 1, 2 and 3 false starts plus take 4)
TTITLE8=Someday Baby (take 5)
TTITLE9=Someday Baby (take 6)
TTITLE10=She Needs Some Loving (take 1)
TTITLE11=Dig You (take 1)
TTITLE12=Dig You (take 2 false start plus take 3)
TTITLE13=She's Out Of Sight (take 1 and 2 false starts plus take 3)
EXTD=YEAR: 2006
EXTT0=
EXTT1=
EXTT2=
EXTT3=
EXTT4=
EXTT5=
EXTT6=
EXTT7=
EXTT8=
EXTT9=
EXTT10=
EXTT11=
EXTT12=
EXTT13=
PLAYORDER=
